<svg id="Layer_1" data-name="Layer 1" xmlns="http://www.w3.org/2000/svg" viewBox="0 0 338.3 327.6"><defs><style>.cls-1{fill:#232529;}</style></defs><title>Artboard 1</title><g id="Layer_2" data-name="Layer 2"><g id="Layer_1-2" data-name="Layer 1-2"><path class="cls-1" d="M155.3,53.1q48.75,0,85.9,31.5c9.3,7.9,17.1,17.1,24.3,26.9,1.6,2.1,1.2,4.1.6,6.3-8.8,29.9-17.6,59.7-26.4,89.6Q227,250.75,214.2,294.2a71.3,71.3,0,0,0-2.3,9.1,5.25,5.25,0,0,1-3.7,4.6,137,137,0,0,1-89.3,5.9c-4.3-1.1-4.6-1.5-1.6-5,7.9-9.1,14.9-18.8,19.5-30a92.74,92.74,0,0,0,6.4-29.4c1.6-23.4-3.4-46.1-7.8-68.8a109.49,109.49,0,0,0-4.2-15.9c-2.5-7-6-9.3-13.5-9.6-8-.3-15.6,1.7-23.3,3.1-22.3,4.3-44.5,8.8-66.8,13.1-4.1.8-4.5.2-3.9-4.3,3-24.2,12.6-45.6,28-64.3C73.6,76,101.4,59.2,135.9,54.3c3.2-.5,6.4-1.1,9.6-1.3S152.1,53.1,155.3,53.1Zm-36.8,84.6a15.08,15.08,0,0,0,10-3.5c6.6-5.2,8.2-12.6,8.4-20.3.2-5.6-1.7-7.4-7.2-8.8-8.1-2-16.4-2.8-24.7-3.9-3.1-.4-4.9.8-5.6,4a29.92,29.92,0,0,0,3.8,22.6c3.6,6.1,9,9.5,15.3,9.9Zm95.1-33.3c-.6-4.2-1.2-8.8-3.3-13-1.4-3-3.5-3.6-6.4-2.1-8,4.1-16.3,7.6-24.6,11-3.3,1.3-4.3,3.6-3.6,6.8a30.89,30.89,0,0,0,6.2,13.5c8,9.1,18.4,9.1,25.3,1.4,4.5-4.8,6-10.9,6.4-17.6Z"/><path class="cls-1" d="M128.3,239.1c.9,21.9-7.8,40.1-21.6,56.2-5.5,6.4-11.5,12.5-17.2,18.8-2.3,2.5-4.8,2.9-7.7,1.5-13.7-6.4-27.3-12.9-39.9-21.4-13.4-9.1-22.4-21.4-27.7-36.7C7.7,238.7,4.6,219.1.8,199.7c-.2-1.1-.5-2.2-.7-3.3-.4-3.1.6-4.9,3.9-5.5,16.6-3.1,33.3-6.4,49.9-9.6l59-11.7c3.2-.6,5,.6,5.5,3.4,3.3,17.9,7.9,35.5,9.3,53.7C128,230.9,128.3,235,128.3,239.1Z"/><path class="cls-1" d="M225.6,315a21,21,0,0,1,1.3-7.8Q259,198,291.2,88.9c1.1-3.8.2-5.4-3.4-6.3a90,90,0,0,1-9.6-3.2c-4.4-1.6-5.1-4.3-1.7-7.5,7-6.4,14.2-12.6,21.3-18.9,6.2-5.5,12.4-10.9,18.5-16.4,4.4-4,6.9-3.3,8.3,2.3,4.4,16.7,8.8,33.5,13.2,50.1a9.19,9.19,0,0,1,.4,3.7c-.3,3.8-2.4,5.3-6.1,4.2s-7.2-2-10.7-3.4-4.8-.3-5.8,3.1q-6.6,23.55-13.7,46.9-23.7,80.4-47.5,160.7c-1.4,4.8-2.6,9.6-4.2,14.3a13.05,13.05,0,0,1-16.4,8.4,12.76,12.76,0,0,1-5.4-3.4A12.31,12.31,0,0,1,225.6,315Z"/><path class="cls-1" d="M163.6,31.5c0,7-.4,7.3-6.8,7.3-23.9.1-46.9,4.3-68.6,14.5A125.75,125.75,0,0,0,55.6,75.6a150,150,0,0,0-27.8,33.7c-1.5,2.5-5.1,3-8.7,1.5a16.66,16.66,0,0,1-9-8.7C5.2,92,2.3,81.3,3.7,69.8c.3-2.4,1-4.6,3.6-5.2,2.4-.5,3.5,1.4,4.7,3,1.7,2.5,3.3,5,5.1,7.4a10,10,0,0,0,8.6,4.4c6.1-.3,7.9-2.1,8-8.2.1-15.1,5.3-28.1,16-38.7,2.7-2.6,3.9-5.2,2.8-9a92.41,92.41,0,0,1-2.1-9.1C50,12.6,50,10.7,52,9.5s3.3-.1,4.7,1c3.3,2.4,6.8,4.7,10,7.2a6.82,6.82,0,0,0,6.6,1.2c16.9-4.5,32.3-1.2,46.3,9.2,5.4,4,11.6,2.1,14-4.4a11.06,11.06,0,0,0-.4-8,60.33,60.33,0,0,0-3.9-8.1c-1.1-2.1-1.9-4.2-.3-6.3s4-1.2,5.9-.5c6.4,2.2,11.5,6.5,16.5,10.8a47.79,47.79,0,0,1,8.9,10.1C162.5,24.9,164.1,28.2,163.6,31.5Z"/></g></g></svg>